<?xml version="1.0" standalone="no"?>
<!DOCTYPE svg PUBLIC "-//W3C//DTD SVG 20010904//EN"
 "http://www.w3.org/TR/2001/REC-SVG-20010904/DTD/svg10.dtd">
<svg version="1.0" xmlns="http://www.w3.org/2000/svg"
 width="1024.000000pt" height="1024.000000pt" viewBox="0 0 1024.000000 1024.000000"
 preserveAspectRatio="xMidYMid meet">

<g transform="translate(0.000000,1024.000000) scale(0.100000,-0.100000)"
fill="#000000" stroke="none">
<path d="M5211 8345 c-88 -31 -139 -64 -208 -137 -160 -171 -188 -451 -68
-693 19 -38 85 -142 146 -230 129 -185 199 -322 235 -462 24 -91 25 -110 21
-268 -5 -167 -5 -173 -61 -390 -50 -191 -58 -237 -63 -345 -7 -144 3 -203 48
-297 l30 -63 43 0 44 0 -10 43 c-5 23 -8 85 -5 137 8 162 72 314 224 531 193
273 293 448 328 575 9 32 19 113 22 180 13 280 -73 471 -329 726 -70 70 -135
142 -144 159 -63 122 67 232 201 170 22 -10 51 -30 65 -45 22 -24 25 -25 31
-9 16 40 9 138 -14 194 -63 152 -191 236 -372 245 -78 4 -100 1 -164 -21z"/>
<path d="M3284 7701 c-65 -30 -89 -72 -89 -158 0 -57 4 -77 21 -100 36 -49 82
-73 138 -73 63 0 110 23 150 73 27 34 31 47 31 102 0 55 -4 68 -31 102 -57 72
-138 91 -220 54z"/>
<path d="M6632 7703 c-96 -47 -128 -166 -69 -254 39 -58 84 -81 148 -77 79 6
125 37 157 106 23 51 24 60 13 100 -6 25 -21 58 -32 74 -44 61 -147 86 -217
51z"/>
<path d="M4431 7324 c-250 -67 -400 -341 -335 -614 16 -68 77 -192 121 -244
14 -17 90 -98 168 -181 166 -173 193 -206 245 -295 97 -163 111 -338 44 -515
-5 -13 11 -15 119 -15 l126 0 21 46 c110 251 103 529 -22 779 -51 102 -101
172 -227 315 -117 132 -141 172 -141 232 0 60 30 105 86 130 73 32 141 12 206
-60 35 -39 36 -39 46 -18 37 81 35 192 -4 267 -76 148 -271 222 -453 173z"/>
<path d="M2925 6816 c-68 -17 -123 -42 -161 -71 -37 -28 -36 -43 5 -123 51
-101 122 -151 265 -186 165 -41 221 -80 315 -220 28 -41 71 -92 96 -113 45
-38 198 -122 222 -123 24 0 58 138 58 235 0 253 -188 495 -455 585 -81 28
-268 36 -345 16z"/>
<path d="M6754 6800 c-128 -45 -233 -144 -296 -277 -89 -190 -71 -392 47 -531
42 -48 65 -54 65 -17 0 14 14 62 31 106 26 66 43 93 96 147 82 85 94 108 104
209 12 114 47 181 144 275 41 40 75 75 75 79 0 3 -17 11 -39 17 -56 17 -168
13 -227 -8z"/>
<path d="M7012 6668 c-45 -45 -91 -100 -102 -122 -10 -23 -24 -80 -29 -128
-12 -105 -30 -141 -113 -234 -35 -38 -74 -93 -86 -122 -24 -54 -44 -143 -35
-152 2 -3 46 -5 96 -5 82 0 99 4 160 32 176 83 317 307 317 502 0 102 -48 238
-102 288 l-24 22 -82 -81z"/>
<path d="M2627 6587 c-129 -302 102 -683 471 -778 85 -22 209 -25 296 -8 93
19 253 109 193 109 -30 0 -177 82 -226 126 -27 24 -70 73 -95 108 -60 85 -105
122 -168 140 -193 55 -228 68 -278 103 -63 45 -121 117 -146 182 -23 64 -27
65 -47 18z"/>
<path d="M4255 5804 c-11 -3 -69 -14 -130 -25 -595 -111 -946 -299 -1043 -560
-56 -151 -56 -446 -1 -724 74 -372 244 -729 504 -1059 43 -53 76 -98 74 -100
-2 -2 -67 -17 -144 -35 -550 -126 -825 -281 -825 -464 0 -80 75 -168 211 -247
335 -196 1003 -355 1673 -400 202 -13 641 -13 856 0 874 54 1713 314 1847 574
20 38 20 114 0 152 -83 160 -412 308 -902 404 -60 12 -112 24 -114 26 -6 5 39
74 103 158 34 43 77 105 96 137 19 32 57 93 84 136 27 43 67 112 88 153 22 41
45 80 51 86 8 8 96 14 267 17 288 7 326 13 459 79 104 50 198 141 271 263 64
106 84 181 83 310 -1 113 -30 220 -85 310 -86 141 -227 244 -384 281 -96 22
-244 15 -341 -18 l-72 -24 -27 55 c-34 70 -136 173 -233 236 -163 105 -406
194 -687 251 -151 30 -180 33 -216 23 -133 -35 -146 -214 -19 -278 20 -11 88
-31 151 -46 267 -63 424 -123 533 -202 167 -122 142 -262 -64 -357 -189 -87
-535 -150 -974 -177 -231 -14 -711 -6 -910 16 -489 52 -756 123 -876 232 -92
83 -94 173 -5 251 106 93 304 168 624 237 180 39 207 49 245 95 94 112 -16
265 -168 234z m3032 -900 c188 -117 174 -377 -28 -489 -54 -30 -56 -30 -236
-33 -147 -3 -183 -1 -183 10 0 7 11 67 24 133 14 66 30 167 37 225 6 58 15
112 20 120 4 8 40 27 81 42 62 24 85 28 155 25 70 -3 89 -8 130 -33z m-3776
-289 c251 -94 538 -152 929 -187 226 -20 982 -17 1180 5 301 34 605 93 789
153 57 19 108 31 113 28 23 -14 -17 -177 -49 -201 -12 -10 -83 -13 -270 -13
l-253 0 -30 -27 c-22 -20 -33 -40 -37 -69 -5 -36 -1 -46 25 -75 l30 -34 224
-5 c219 -5 223 -5 226 -27 2 -13 -9 -34 -27 -55 l-29 -33 -286 3 c-310 3 -355
-2 -382 -44 -23 -34 -22 -99 2 -125 41 -46 61 -49 299 -49 l225 0 0 -23 c0
-13 -15 -41 -34 -63 l-34 -39 -293 0 c-210 0 -300 -4 -315 -12 -31 -18 -55
-75 -48 -111 3 -17 19 -43 36 -59 l29 -28 200 -1 c110 -1 203 -5 207 -8 3 -4
-13 -26 -36 -49 l-42 -42 -301 -5 -301 -5 -29 -33 c-32 -35 -38 -81 -17 -127
20 -44 56 -55 173 -55 58 0 105 -4 105 -9 0 -13 -111 -59 -195 -81 -121 -31
-240 -43 -365 -37 -332 16 -643 143 -901 370 -107 95 -139 129 -233 250 -174
225 -297 488 -366 783 -18 74 -27 174 -16 174 2 0 46 -16 97 -35z m2597 -1611
c184 -60 272 -131 258 -210 -37 -194 -763 -335 -1566 -303 -710 27 -1180 160
-1180 333 0 32 50 89 106 122 51 30 225 94 256 94 12 0 57 -23 101 -51 188
-121 403 -199 651 -235 153 -23 458 -15 601 16 204 43 411 129 551 229 78 56
66 56 222 5z"/>
<path d="M4695 5309 c-367 -17 -767 -82 -923 -149 -55 -24 -75 -56 -55 -89 24
-42 235 -109 438 -140 382 -60 1127 -67 1550 -15 305 37 563 113 573 168 15
78 -254 160 -656 201 -331 33 -601 40 -927 24z"/>
<path d="M2600 4978 c-92 -63 -107 -177 -35 -257 80 -88 220 -69 275 39 39 76
13 168 -59 217 -47 32 -135 32 -181 1z"/>
<path d="M2613 4411 c-104 -48 -123 -183 -39 -267 48 -49 97 -63 157 -45 108
32 157 138 109 235 -40 82 -143 116 -227 77z"/>
<path d="M2653 3808 c-33 -6 -53 -15 -53 -23 0 -26 87 -140 139 -182 49 -41
55 -43 116 -43 73 0 82 10 70 85 -17 118 -135 189 -272 163z"/>
<path d="M6767 3780 c-104 -19 -137 -149 -57 -225 l31 -30 306 -3 c292 -3 307
-2 348 18 95 46 98 177 4 226 -26 13 -78 16 -312 18 -155 1 -299 -1 -320 -4z"/>
</g>
</svg>
